<svg stroke="#fff" fill="#fff" xmlns="http://www.w3.org/2000/svg" version="1.1" xmlns:xlink="http://www.w3.org/1999/xlink" x="0" y="0" viewBox="0 0 64 64" xml:space="preserve"><g><g><path fill-rule="evenodd" d="M49.95 3.557a2 2 0 0 0-3.9 0l-1.107 4.866a6 6 0 0 1-4.52 4.52l-4.867 1.107a2 2 0 0 0 0 3.9l4.867 1.107a6 6 0 0 1 4.52 4.52l1.107 4.866a2 2 0 0 0 3.9 0l1.107-4.866a6 6 0 0 1 4.52-4.52l4.867-1.107a2 2 0 0 0 0-3.9l-4.867-1.107a6 6 0 0 1-4.52-4.52z" clip-rule="evenodd" opacity="1"></path><path d="M22 16a2 2 0 0 1 2 2v42a2 2 0 1 1-4 0V18a2 2 0 0 1 2-2zM6 23a2 2 0 1 0-4 0v32a2 2 0 1 0 4 0zM15 27a2 2 0 1 0-4 0v24a2 2 0 1 0 4 0zM33 24a2 2 0 1 0-4 0v30a2 2 0 1 0 4 0zM40 29a2 2 0 0 1 2 2v16a2 2 0 1 1-4 0V31a2 2 0 0 1 2-2z" opacity="1"></path></g></g></svg>